<?xml version="1.0" standalone="no"?>
<!DOCTYPE svg PUBLIC "-//W3C//DTD SVG 20010904//EN"
 "http://www.w3.org/TR/2001/REC-SVG-20010904/DTD/svg10.dtd">
<svg version="1.0" xmlns="http://www.w3.org/2000/svg"
 width="1024.000000pt" height="1024.000000pt" viewBox="0 0 1024.000000 1024.000000"
 preserveAspectRatio="xMidYMid meet">
<metadata>
Created by potrace 1.14, written by Peter Selinger 2001-2017
</metadata>
<g transform="translate(0.000000,1024.000000) scale(0.100000,-0.100000)"
fill="#000000" stroke="none">
<path d="M170 7202 l0 -912 912 2 912 3 0 898 c1 494 -1 903 -4 910 -4 10
-203 12 -912 12 l-908 0 0 -913z"/>
<path d="M2200 8112 c-13 -2 -15 -122 -15 -912 l0 -910 913 0 912 0 -2 912 -3
913 -895 0 c-493 0 -902 -1 -910 -3z"/>
<path d="M4210 7202 l0 -912 912 2 912 3 0 910 0 910 -912 0 -912 0 0 -913z"/>
<path d="M6245 8110 c-2 -3 -3 -413 -3 -913 l0 -907 911 2 912 3 1 908 c0 499
-2 908 -5 908 -19 4 -1813 3 -1816 -1z"/>
<path d="M8260 8110 c-4 -3 -7 -413 -8 -912 l0 -908 913 0 912 0 0 910 c0 501
-2 911 -6 911 -20 4 -1804 3 -1811 -1z"/>
<path d="M174 5160 c0 -500 2 -910 5 -911 3 -1 414 -2 913 -3 l906 -1 0 913 0
912 -912 0 -912 0 0 -910z"/>
<path d="M2199 6053 c-5 -104 0 -1795 5 -1800 11 -11 1807 -10 1814 1 3 5 6
416 6 913 l1 903 -912 0 c-863 0 -913 -1 -914 -17z"/>
<path d="M4232 5158 l3 -912 903 -1 c497 0 907 2 911 5 4 3 7 413 6 913 l0
907 -913 0 -912 0 2 -912z"/>
<path d="M6243 5158 l2 -912 903 -1 c497 0 907 2 911 5 4 3 7 413 7 913 l0
907 -912 0 -912 0 1 -912z"/>
<path d="M8257 6063 c-3 -5 -5 -414 -5 -910 l0 -901 27 -4 c14 -2 424 -3 911
-3 l885 1 1 912 1 912 -908 0 c-499 0 -910 -3 -912 -7z"/>
<path d="M2401 3133 l0 -913 2725 0 2724 0 0 913 0 913 -2724 0 -2725 0 0
-913z"/>
</g>
</svg>
